Coordinates
version=1
nRows=60
nColumns=12
inDegrees=yes

Units are S.I. units (second, meters, Newtons, ...)
Angles are in degrees

endheader
time	SC_y	SC_z	SC_x	AC_y	AC_z	AC_x	GH_y	GH_z	GH_yy	EL_x	PS_y
       0.0              -56.15          15.45          27.66          64.66          9.391          2.702         -158.1          3.498          59.21          14.22          116.7
   0.02766              -56.15          15.46          27.65          64.66          9.389          2.705         -158.2          3.504          59.19          14.23          116.7
   0.05531              -56.15          15.46          27.65          64.66          9.387          2.707         -158.2           3.51          59.18          14.24          116.7
   0.08297              -56.15          15.46          27.65          64.66          9.384           2.71         -158.2          3.516          59.16          14.25          116.7
    0.1106              -56.15          15.46          27.65          64.66          9.382          2.713         -158.2          3.523          59.14          14.26          116.7
    0.1383              -56.14          15.46          27.64          64.66          9.379          2.716         -158.2          3.531          59.12          14.28          116.7
    0.1659              -56.14          15.46          27.64          64.66          9.377           2.72         -158.2          3.538           59.1          14.29          116.7
    0.1936              -56.14          15.47          27.64          64.66          9.374          2.723         -158.2          3.547          59.08          14.31          116.7
    0.2212              -56.14          15.47          27.63          64.66           9.37          2.727         -158.2          3.556          59.06          14.33          116.7
    0.2489              -56.14          15.47          27.63          64.66          9.367          2.731         -158.2          3.566          59.04          14.35          116.6
    0.2766              -56.14          15.47          27.62          64.66          9.363          2.736         -158.2          3.576          59.01          14.37          116.6
    0.3042              -56.13          15.48          27.62          64.66          9.359          2.741         -158.2          3.587          58.98          14.39          116.6
    0.3319              -56.13          15.48          27.61          64.66          9.355          2.746         -158.2          3.599          58.95          14.41          116.6
    0.3595              -56.13          15.48          27.61          64.66           9.35          2.752         -158.2          3.612          58.92          14.44          116.6
    0.3872              -56.13          15.49           27.6          64.66          9.345          2.758         -158.2          3.626          58.88          14.46          116.6
    0.4148              -56.12          15.49           27.6          64.66           9.34          2.765         -158.2          3.641          58.84          14.49          116.6
    0.4425              -56.12          15.49          27.59          64.67          9.334          2.772         -158.2          3.658           58.8          14.52          116.6
    0.4701              -56.12           15.5          27.58          64.67          9.327           2.78         -158.2          3.676          58.76          14.56          116.6
    0.4978              -56.11           15.5          27.57          64.67           9.32          2.788         -158.2          3.696          58.71           14.6          116.6
    0.5255              -56.11          15.51          27.57          64.67          9.312          2.798         -158.2          3.717          58.65          14.64          116.6
    0.5531               -56.1          15.51          27.56          64.67          9.304          2.808         -158.2          3.741          58.59          14.68          116.5
    0.5808               -56.1          15.52          27.55          64.67          9.295          2.819         -158.2          3.767          58.52          14.73          116.5
    0.6084              -56.09          15.53          27.53          64.67          9.284          2.832         -158.2          3.796          58.45          14.79          116.5
    0.6361              -56.09          15.53          27.52          64.67          9.273          2.846         -158.2          3.828          58.37          14.85          116.5
    0.6637              -56.08          15.54          27.51          64.67           9.26          2.861         -158.2          3.864          58.28          14.92          116.5
    0.6914              -56.07          15.55          27.49          64.67          9.246          2.878         -158.2          3.903          58.18           15.0          116.4
     0.719              -56.07          15.56          27.47          64.68           9.23          2.898         -158.2          3.948          58.07          15.08          116.4
    0.7467              -56.06          15.58          27.45          64.68          9.212          2.919         -158.2          3.997          57.94          15.18          116.4
    0.7744              -56.05          15.59          27.43          64.68          9.192          2.944         -158.2          4.054           57.8          15.29          116.3
     0.802              -56.03           15.6           27.4          64.68          9.169          2.972         -158.2          4.118          57.64          15.41          116.3
    0.8297              -56.02          15.62          27.37          64.69          9.143          3.004         -158.2          4.191          57.45          15.55          116.3
    0.8573               -56.0          15.64          27.34          64.69          9.113           3.04         -158.2          4.275          57.24          15.71          116.2
     0.885              -55.98          15.67           27.3          64.69          9.078          3.082         -158.2          4.372          56.99           15.9          116.2
    0.9126              -55.96          15.69          27.25           64.7          9.038          3.131         -158.2          4.484          56.71          16.12          116.1
    0.9403              -55.94          15.72           27.2           64.7          8.991          3.189         -158.2          4.616          56.37          16.37          116.0
     0.968              -55.91          15.76          27.13          64.71          8.935          3.256         -158.3          4.771          55.98          16.67          115.9
    0.9956              -55.87          15.81          27.06          64.71          8.869          3.336         -158.3          4.956          55.51          17.02          115.8
     1.023              -55.83          15.86          26.97          64.72           8.79          3.433         -158.3          5.177          54.95          17.45          115.7
     1.051              -55.78          15.92          26.86          64.73          8.694          3.549         -158.3          5.445          54.27          17.97          115.5
     1.079              -55.72           16.0          26.72          64.74          8.577          3.691         -158.3          5.772          53.44           18.6          115.3
     1.106              -55.64           16.1          26.56          64.76          8.433          3.867         -158.4          6.175          52.42          19.37          115.0
     1.134              -55.55          16.22          26.35          64.78          8.253          4.086         -158.4          6.678          51.15          20.34          114.7
     1.162              -55.42          16.38          26.09           64.8          8.026          4.361         -158.5          7.312          49.54          21.56          114.4
     1.189              -55.27          16.57          25.76          64.83          7.738          4.712         -158.5          8.118           47.5          23.11          113.9
     1.217              -55.07          16.82          25.34          64.87          7.369           5.16         -158.6          9.149          44.88           25.1          113.2
     1.245              -54.82          17.14          24.79          64.92          6.895          5.736         -158.7          10.47          41.53          27.65          112.4
     1.272               -54.5          17.55           24.1          64.98           6.29          6.472         -158.8          12.16          37.24           30.9          111.4
       1.3               -54.1          18.06          23.23          65.06          5.529          7.396         -159.0          14.29          31.86           35.0          110.1
     1.327               -53.6          18.69          22.16          65.15          4.602          8.523         -159.2          16.88          25.29          39.98          108.5
     1.355              -53.03          19.42          20.93          65.26          3.528          9.829         -159.5          19.88          17.68          45.77          106.7
     1.383              -52.41           20.2           19.6          65.38          2.364          11.24         -159.7          23.13           9.44          52.03          104.7
      1.41              -51.79          20.99          18.26           65.5          1.201          12.66         -160.0          26.38          1.199          58.29          102.7
     1.438              -51.22          21.71          17.03          65.61         0.1266          13.96         -160.2          29.39         -6.411          64.07          100.8
     1.466              -50.73          22.34          15.97          65.71        -0.8004          15.09         -160.4          31.98         -12.98          69.06          99.26
     1.493              -50.32          22.85           15.1          65.79         -1.561          16.02         -160.6           34.1         -18.36          73.15          97.96
     1.521               -50.0          23.26           14.4          65.85         -2.166          16.75         -160.7          35.79         -22.65          76.41          96.92
     1.549              -49.75          23.58          13.86           65.9          -2.64          17.33         -160.9          37.12          -26.0          78.96          96.11
     1.576              -49.55          23.83          13.44          65.94         -3.009          17.77         -160.9          38.15         -28.62          80.94          95.48
     1.604               -49.4          24.03          13.11          65.97         -3.297          18.13         -161.0          38.95         -30.66          82.49          94.99
     1.632              -49.28          24.18          12.85          65.99         -3.524           18.4         -161.0          39.59         -32.27          83.71           94.6
